<?xml version="1.0" encoding="UTF-8"?>
<svg width="107px" height="88px" viewBox="0 0 107 88" version="1.1" xmlns="http://www.w3.org/2000/svg" xmlns:xlink="http://www.w3.org/1999/xlink">
    <!-- Generator: Sketch 49 (51002) - http://www.bohemiancoding.com/sketch -->
    <title>Logo</title>
    <desc>Created with Sketch.</desc>
    <defs></defs>
    <g id="Symbols" stroke="none" stroke-width="1" fill="none" fill-rule="evenodd">
        <g id="Card/Review/Mobile" transform="translate(-102.000000, -24.000000)">
            <g id="Stacked-Group">
                <g id="Logo/Provider/ExpressVPN" transform="translate(76.000000, 16.000000)">
                    <g id="171012_ExpressVPN" transform="translate(26.000000, 8.000000)">
                        <polyline id="Shape" fill="#C8252C" fill-rule="nonzero" points="0.229576302 83.9845867 0.229576302 67.4085218 11.1945778 67.4085218 11.1945778 69.6170458 2.37228845 69.6170458 2.37228845 74.5316185 10.2653404 74.5316185 10.2653404 76.7280078 2.37228845 76.7280078 2.37228845 81.7760627 11.3038998 81.7760627 11.3038998 83.9845867 0.229576302 83.9845867"></polyline>
                        <polygon id="Shape" fill="#C8252C" fill-rule="nonzero" points="17.130765 79.3248437 14.0260188 83.9845867 11.686527 83.9845867 15.9391547 77.6623833 11.8505101 71.5464706 14.2227985 71.5464706 17.1744938 75.9635187 20.1261891 71.5464706 22.465681 71.5464706 18.3442398 77.6259791 22.6296641 83.9845867 20.224579 83.9845867 17.130765 79.3248437"></polygon>
                        <path d="M28.5439869,73.4394912 C26.51745,73.525075 24.9342904,75.4125531 25.0019525,77.6623833 C24.9575796,78.746559 25.3079696,79.8049745 25.9742213,80.5992945 C26.640473,81.3936146 27.5665751,81.8570614 28.5439869,81.8852754 C29.5192338,81.8802205 30.4474219,81.4192675 31.1007539,80.6155443 C31.7540859,79.8118211 32.072082,78.7397294 31.9766992,77.6623833 C32.0552439,76.5892705 31.7314009,75.5277362 31.081622,74.728384 C30.4318431,73.9290317 29.5137151,73.4627045 28.5439869,73.4394912 M22.9576302,87.3701812 L22.9576302,71.5950096 L25.0128847,71.5950096 L25.0128847,73.3909522 C25.9075215,72.0922937 27.3008116,71.3370009 28.7735632,71.3523147 C30.234931,71.3788965 31.6227699,72.068471 32.6141196,73.2605691 C33.6054694,74.4526672 34.1138731,76.0433244 34.0210215,77.6623833 C34.1138005,79.2825945 33.6057073,80.8744595 32.6146874,82.0684526 C31.6236676,83.2624457 30.2359111,83.9547241 28.7735632,83.9845867 C27.3194274,84.004873 25.9357874,83.2905287 25.0128847,82.0430271 L25.0128847,87.3701812 L22.9576302,87.3701812" id="Shape" fill="#C8252C" fill-rule="nonzero"></path>
                        <path d="M34.4583097,83.9845867 L34.4583097,71.5950096 L36.5463609,71.5950096 L36.5463609,73.8642074 C37.3883094,72.3621873 38.866386,71.4456147 40.4600902,71.4372579 L40.8973784,71.4372579 L40.8973784,73.8642074 L40.5256834,73.8642074 C38.1096661,73.8642074 36.5572931,75.8785755 36.5572931,79.0093403 L36.5572931,83.972452 L34.4583097,83.972452" id="Shape" fill="#C8252C" fill-rule="nonzero"></path>
                        <path d="M46.0573791,71.5950096 C44.6221352,71.6282639 43.2612445,72.3100697 42.2893364,73.4827976 C41.3174282,74.6555255 40.818648,76.2176438 40.9083106,77.8080003 C40.8549752,79.418275 41.3927004,80.9836273 42.3983768,82.1456781 C43.4040531,83.3077289 44.791557,83.9669629 46.2432266,83.972452 C47.9316587,84.0219128 49.5458577,83.2021822 50.6161085,81.7517932 L50.7800916,81.5576372 L49.4791592,80.2592193 L49.3151761,80.4533752 C48.5456308,81.4273474 47.4321499,81.9810946 46.265091,81.9702187 C44.5820473,81.9808738 43.1649297,80.57566 42.9854295,78.7181064 L51.0533967,78.7181064 L51.0533967,78.4754114 C51.0533967,78.208447 51.0533967,78.014291 51.0533967,77.8565393 C51.0752611,74.0219591 49.0637354,71.5950096 46.0573791,71.5950096 Z M42.9635651,76.8493553 C43.1156754,75.0709954 44.4077779,73.6778865 46.0136503,73.5608387 C47.6387065,73.6046628 48.9517057,75.0461346 49.0090744,76.8493553 L42.9635651,76.8493553 Z" id="Shape" fill="#C8252C" fill-rule="nonzero"></path>
                        <path d="M51.6437358,82.2493178 L51.4688205,82.0915661 L52.562041,80.4412405 L52.7588207,80.611127 C53.7318723,81.4794975 54.9327286,81.9734983 56.1806008,82.0187576 C57.2738213,82.0187576 58.06094,81.3877508 58.06094,80.4776447 C58.06094,79.5432692 57.0223806,79.1428225 55.6667872,78.7181064 C54.3111937,78.2933902 52.081024,77.5895748 52.081024,75.2111644 C52.0372951,73.0390446 53.5678038,71.5950096 55.7542448,71.5950096 C57.117798,71.6191317 58.4476526,72.0691227 59.5914487,72.8934276 L59.7882284,73.0390446 L58.8371266,74.7743135 L58.6294147,74.6286965 C57.7775255,73.9864882 56.7827829,73.617034 55.7542448,73.5608387 C54.6610243,73.5608387 54.005092,74.1190371 54.005092,74.9563347 C54.005092,75.8300365 55.1857701,76.2304831 56.4320415,76.6551993 C57.8204315,77.1163197 59.9084826,77.868674 59.9084826,80.1864108 L59.9084826,80.271354 C59.9084826,82.479878 58.3342451,83.9117782 56.0056855,83.9117782 C54.4158124,83.8716847 52.8808844,83.2583275 51.6328036,82.1643746 L51.6437358,82.2493178 Z" id="Shape" fill="#C8252C" fill-rule="nonzero"></path>
                        <path d="M64.9372969,83.9967215 C63.3475709,83.9557515 61.8128857,83.3424913 60.5644149,82.2493178 L60.3894997,82.0915661 L61.4827201,80.4412405 L61.6794998,80.611127 C62.652946,81.4787253 63.8535619,81.9726272 65.1012799,82.0187576 C66.1945004,82.0187576 66.9925514,81.3998855 66.9925514,80.4776447 C66.9925514,79.5432692 65.9539919,79.1428225 64.5983985,78.7181064 C63.2428051,78.2933902 61.0126353,77.5895748 61.0126353,75.2111644 C61.0126353,73.1239878 62.5540762,71.6678181 64.7623816,71.6678181 C66.1259348,71.6919402 67.4557894,72.1419311 68.5995855,72.9662361 L68.7963652,73.1118531 L67.7796701,74.7743135 L67.5719582,74.6286965 C66.7092666,73.9850048 65.7026269,73.6195492 64.6639918,73.5729735 C63.5707713,73.5729735 62.914839,74.1311718 62.914839,74.9684694 C62.914839,75.8421712 64.0955171,76.2426179 65.3417885,76.667334 C66.7301785,77.1284544 68.8182296,77.8808088 68.8182296,80.1985455 L68.8182296,80.2834888 C68.8182296,82.4920128 67.2439921,83.923913 64.9154325,83.923913" id="Shape" fill="#C8252C" fill-rule="nonzero"></path>
                        <path d="M88.2228932,67.4085218 L82.6146721,67.4085218 L82.6146721,83.9845867 L84.7245877,83.9845867 L84.7245877,78.3297944 L87.9495881,78.3297944 C90.8575546,78.3297944 93.8201821,76.6187951 93.8201821,72.8084844 C93.8201821,69.5078331 91.6228089,67.4085218 88.2228932,67.4085218 Z M91.6884022,72.8812929 C91.6884022,74.8592567 90.2453511,76.1091357 88.0151813,76.1091357 L84.7355199,76.1091357 L84.7355199,69.6413153 L88.102639,69.6413153 C90.3874698,69.6413153 91.6884022,70.85479 91.6884022,72.8448886 L91.6884022,72.8812929 Z" id="Shape" fill="#C8252C" fill-rule="nonzero"></path>
                        <polyline id="Shape" fill="#C8252C" fill-rule="nonzero" points="105.233404 83.9845867 96.3017926 71.3765842 96.3017926 83.9845867 94.2137415 83.9845867 94.2137415 67.4085218 96.1050129 67.4085218 104.81798 79.7252904 104.81798 67.4085218 106.906031 67.4085218 106.906031 83.9845867 105.233404 83.9845867"></polyline>
                        <polygon id="Shape" fill="#C8252C" fill-rule="nonzero" points="76.044417 83.9845867 82.2539094 67.4206565 79.7504345 67.4206565 74.7762812 80.9994389 69.8349247 67.4206565 67.2986531 67.4206565 73.5081455 83.9845867 76.044417 83.9845867"></polygon>
                        <ellipse id="Oval" fill="#C8252C" fill-rule="nonzero" cx="53.5678038" cy="29.6937269" rx="26.6745799" ry="29.6937269"></ellipse>
                        <polygon id="Shape" fill="#FFFFFF" fill-rule="nonzero" points="64.3360256 13.8457468 57.7876349 36.5377244 57.7001773 36.5377244 52.7041596 20.0466027 36.1746659 20.0466027 36.1746659 24.25736 47.6862776 24.25736 48.7248371 27.4852029 39.0389036 27.4852029 39.0389036 31.6959602 50.0694983 31.6959602 50.9222102 34.3656046 35.9778862 34.3656046 35.9778862 38.5642272 52.2559392 38.5642272 54.3877192 45.2262035 60.6518726 45.2262035 70.7313655 13.8457468"></polygon>
                    </g>
                </g>
            </g>
        </g>
    </g>
</svg>