<?xml version="1.0" encoding="UTF-8"?>
<svg width="160px" height="96px" viewBox="0 0 160 96" version="1.1" xmlns="http://www.w3.org/2000/svg" xmlns:xlink="http://www.w3.org/1999/xlink">
    <!-- Generator: Sketch 49 (51002) - http://www.bohemiancoding.com/sketch -->
    <title>Logo/Provider/CyberGhost</title>
    <desc>Created with Sketch.</desc>
    <defs></defs>
    <g id="Logo/Provider/CyberGhost" stroke="none" stroke-width="1" fill="none" fill-rule="evenodd">
        <g id="171012_Cyberghost" transform="translate(38.000000, 8.000000)" fill-rule="nonzero">
            <path d="M70.3219512,28.3811538 C70.3047811,13.0720643 57.9058497,0.67392812 42.6244135,0.68539239 C27.3429773,0.69685666 14.9625951,13.1135825 14.9683121,28.4226806 C14.974029,43.7317788 27.3636815,56.1392211 42.645122,56.1392308 C49.9908646,56.1392354 57.0352913,53.2137383 62.2265985,48.0071916 C67.4179056,42.8006449 70.3302049,35.7401873 70.3219512,28.3811538 Z" id="Shape" fill="#FFCC00"></path>
            <path d="M55.9756098,23.7703846 C55.9756098,16.2027028 49.8518752,10.0678846 42.2978659,10.0678846 C34.7438565,10.0678846 28.620122,16.2027028 28.620122,23.7703846 C28.620122,31.3407692 25.4170732,45.0173077 32.9737805,45.0173077 C66.6835366,45.0173077 55.9756098,31.3303846 55.9756098,23.7703846 Z M39.2762195,31.6834615 C36.477439,31.6834615 34.2384146,28.4953846 34.2384146,24.5596154 C34.2384146,20.6238462 36.4981707,17.4357692 39.2762195,17.4357692 C42.0542683,17.4357692 44.3140244,20.6238462 44.3140244,24.5596154 C44.3140244,28.4953846 42.075,31.6834615 39.2762195,31.6834615 Z M51.0310976,29.3261538 C48.8231707,29.3261538 47.029878,26.8026923 47.029878,23.6976923 C47.029878,20.5926923 48.8231707,18.0692308 51.0310976,18.0692308 C53.2390244,18.0692308 55.0323171,20.5926923 55.0323171,23.6976923 C55.0323171,26.8026923 53.2493902,29.3261538 51.0310976,29.3261538 Z" id="Shape" fill="#323232"></path>
            <path d="M5.24512195,75.9323077 C1.09878049,75.9323077 0.062195122,73.3361538 0.0103658537,71.1657692 C-0.145121951,66.6588462 2.23902439,61.8196154 7.83658537,61.8196154 C8.75588821,61.8110585 9.67237246,61.9227717 10.5628049,62.1519231 L10.0756098,64.1665385 C9.28673606,63.921073 8.46568006,63.7950666 7.63963415,63.7926923 C3.99085366,63.7926923 2.45670732,67.2196154 2.60182927,70.6257692 C2.67439024,72.8169231 3.79390244,73.8761538 6.01219512,73.8761538 C6.91134139,73.8635849 7.80709078,73.7627176 8.68658537,73.575 C9.1511057,73.4607263 9.6053181,73.3078902 10.0445122,73.1180769 C10.1994666,73.7495028 10.3068823,74.3916922 10.3658537,75.0392308 C9.93023631,75.2290868 9.47946314,75.3819323 9.01829268,75.4961538 C7.79373989,75.778647 6.54300583,75.9317912 5.28658537,75.9530769 L5.24512195,75.9323077 Z" id="Shape" fill="#323232"></path>
            <path d="M12.5530488,78.7153846 C11.6750538,79.7128108 10.4181419,80.293394 9.09085366,80.3146154 C8.64465201,80.3139752 8.19981466,80.265233 7.76402439,80.1692308 L8.075,78.1961538 C8.42822459,78.3185693 8.8000592,78.3783111 9.17378049,78.3726923 C9.79531119,78.3619389 10.386062,78.0997401 10.8115854,77.6457692 C11.383766,77.031324 11.6567791,76.1956073 11.5579268,75.3611538 C11.3615442,72.5043141 10.8006791,69.6844431 9.88902439,66.9703846 L12.4390244,66.9703846 C13.0198083,69.0364711 13.3675089,71.1612842 13.4756098,73.305 C13.4812105,73.5557293 13.4603632,73.8063501 13.4134146,74.0526923 C14.5717529,71.7701268 15.5726725,69.4107593 16.4091463,66.9911538 L18.7207317,66.9911538 C16.5853659,73.2842308 14.5743902,76.5969231 12.5530488,78.7153846 Z" id="Shape" fill="#323232"></path>
            <path d="M21.0841463,76.0153846 C20.0389662,76.0215536 18.9962267,75.9136088 17.9743902,75.6934615 L19.695122,64.5923077 C19.2804878,64.5196154 18.6585366,64.4469231 18.1920732,64.4157692 L18.4097561,62.9826923 C19.6620246,62.8389103 20.9230956,62.786849 22.1829268,62.8269231 L21.5506098,66.6069231 C21.3555011,67.6968089 21.0641114,68.7671716 20.679878,69.8053846 C21.529878,68.0296154 22.7530488,66.7834615 24.3079268,66.7834615 C25.6658537,66.7834615 26.3810976,67.6557692 26.495122,69.5561538 C26.6713415,72.9103846 24.9817073,76.0153846 21.0841463,76.0153846 Z M23.5408537,68.7461538 C22.2865854,68.7461538 20.8042683,71.6642308 20.5140244,73.5023077 L20.4103659,74.1357692 C20.7493921,74.2202487 21.0975992,74.2621092 21.4469512,74.2603846 C23.520122,74.2603846 24.3597561,71.8615385 24.297561,70.0026923 C24.297561,69.1096154 23.9969512,68.7461538 23.5719512,68.7461538 L23.5408537,68.7461538 Z" id="Shape" fill="#323232"></path>
            <path d="M29.1695122,72.225 C29.1508391,72.4565459 29.1508391,72.6892234 29.1695122,72.9207692 C29.1695122,73.9592308 29.6152439,74.25 30.8384146,74.25 C31.7068665,74.2403244 32.5654282,74.0640712 33.3676829,73.7307692 L34,73.4711538 L33.6371951,75.4026923 C32.5069972,75.8134397 31.3150445,76.0276771 30.1128049,76.0361538 C27.8634146,76.0361538 27.0030488,74.9976923 26.8682927,73.035 C26.7335366,69.3173077 28.9414634,66.8042308 31.6676829,66.8042308 C33.8652439,66.8042308 34.5804878,67.8946154 34.6115854,68.9642308 C34.7152439,71.0826923 32.6420732,72.1211538 29.1695122,72.225 Z M31.5018293,68.445 C30.3408537,68.445 29.6463415,69.4834615 29.3664634,70.6776923 C31.4396341,70.605 32.4762195,70.1792308 32.4762195,69.2238462 C32.4762195,68.7876923 32.1134146,68.4761538 31.522561,68.4761538 L31.5018293,68.445 Z" id="Shape" fill="#323232"></path>
            <path d="M40.2920732,69.0265385 C38.7164634,68.445 37.2963415,71.1034615 36.8609756,73.9280769 L36.5707317,75.8596154 L34.352439,75.8596154 C34.352439,75.8596154 35.3060976,69.9715385 35.4408537,69.0992308 C35.5588529,68.384221 35.3230976,67.6563157 34.8085366,67.1469231 L37.9182927,66.8769231 C37.7581601,67.8166557 37.529499,68.7433684 37.2341463,69.6496154 C38.1152439,67.7596154 39.0585366,66.4511538 40.7170732,66.8042308 L40.2920732,69.0265385 Z" id="Shape" fill="#323232"></path>
            <path d="M47.8487805,75.9634615 C44.1689024,75.9634615 42.0853659,74.115 41.9609756,70.7711538 C41.7500998,68.3895734 42.5736748,66.032433 44.2211005,64.3024878 C45.8685262,62.5725425 48.1800692,61.6375271 50.5646341,61.7365385 C51.8561561,61.7304495 53.1426479,61.8981009 54.3896341,62.235 L53.829878,64.3846154 C52.7287837,63.9725397 51.5638099,63.7581059 50.3884146,63.7511538 C46.8743902,63.7511538 44.3243902,66.6173077 44.4591463,70.4284615 C44.4323587,71.4322563 44.8398344,72.3986863 45.5768135,73.0792875 C46.3137926,73.7598887 47.308382,74.0882677 48.304878,73.98 C49.0052458,73.9784245 49.7023355,73.8841471 50.3780488,73.6996154 L50.5128049,73.6996154 L51.2591463,68.7980769 L53.477439,68.7980769 L52.4408537,75.2469231 C50.9593835,75.7349372 49.4082259,75.9769769 47.8487805,75.9634615 Z" id="Shape" fill="#323232"></path>
            <path d="M62.5371951,75.8076923 L60.3085366,75.8076923 L61.1585366,70.2830769 C61.3140244,69.1926923 61.1585366,68.7461538 60.5676829,68.7461538 C59.3756098,68.7461538 57.8621951,71.5292308 57.5408537,73.6061538 L57.229878,75.8076923 L54.9908537,75.8076923 L56.7426829,64.5923077 C56.3280488,64.5196154 55.7060976,64.4469231 55.2396341,64.4157692 L55.4365854,62.9826923 C56.6888908,62.8393864 57.9499271,62.7873266 59.2097561,62.8269231 L58.6292683,66.6069231 C58.4365735,67.6670184 58.1557166,68.7091118 57.7896341,69.7223077 C58.5359756,68.1334615 59.7176829,66.7523077 61.4176829,66.7523077 C63.1176829,66.7523077 63.6878049,67.9673077 63.4182927,69.7015385 L62.5371951,75.8076923 Z" id="Shape" fill="#323232"></path>
            <path d="M67.4713415,76.0361538 C64.9939024,76.0361538 63.9676829,74.8523077 63.9054878,72.9207692 C63.7707317,69.2030769 66.1859756,66.8561538 69.0262195,66.8561538 C71.545122,66.8561538 72.5506098,68.2165385 72.6231707,70.0961538 C72.7371951,73.7307692 70.2493902,76.0361538 67.4713415,76.0361538 Z M68.7256098,68.7669231 C67.0670732,68.7669231 66.1341463,70.7503846 66.2067073,72.5469231 C66.2067073,73.5126923 66.652439,74.115 67.6890244,74.115 C69.275,74.115 70.3219512,72.3392308 70.2493902,70.335 C70.2493902,69.2965385 69.772561,68.7669231 68.7359756,68.7669231 L68.7256098,68.7669231 Z" id="Shape" fill="#323232"></path>
            <path d="M84.6993902,68.7357692 L82.6262195,68.7357692 L81.9939024,72.7442308 C81.8384146,73.7826923 81.9939024,74.1046154 82.7195122,74.1046154 C83.0893365,74.1055345 83.4580328,74.0637198 83.8182927,73.98 L83.6628049,75.8076923 C83.068649,75.9520482 82.4601144,76.0286882 81.8487805,76.0361538 C79.9621951,76.0361538 79.3713415,75.1223077 79.7030488,72.9934615 L80.3353659,68.7357692 L78.9152439,68.7357692 L79.2158537,66.96 L80.6152439,66.96 L81.0402439,64.2184615 L83.3414634,63.7511538 L82.8439024,66.9496154 L85,66.9496154 L84.6993902,68.7357692 Z" id="Shape" fill="#323232"></path>
            <path d="M77.0804878,68.4553846 C77.5492758,68.4520266 78.0164123,68.5113974 78.4695122,68.6319231 L78.7804878,66.9392308 C78.2368751,66.8378753 77.6852596,66.7857419 77.1323171,66.7834615 C74.6134146,66.7834615 73.3591463,68.04 73.4317073,69.66 C73.5042683,71.7369231 75.7847561,72.0173077 75.8262195,73.2219231 C75.8488633,73.5814633 75.6404478,73.9155318 75.3079268,74.0526923 L75.0591463,74.1461538 C74.1858811,74.4080128 73.2451255,74.3186096 72.4365854,73.8969231 C72.1191824,74.5349327 71.6491132,75.0843394 71.0682927,75.4961538 C72.0721869,75.8305488 73.120379,76.0125643 74.1780488,76.0361538 C76.9457317,76.0361538 78.1792683,74.4992308 78.127439,73.0142308 C78.054878,71.0411538 75.7432927,70.5323077 75.7018293,69.4419231 C75.6707317,68.8603846 76.147561,68.4553846 77.0804878,68.4553846 Z" id="Shape" fill="#323232"></path>
        </g>
    </g>
</svg>