<?xml version="1.0" encoding="UTF-8"?>
<svg width="160px" height="96px" viewBox="0 0 160 96" version="1.1" xmlns="http://www.w3.org/2000/svg" xmlns:xlink="http://www.w3.org/1999/xlink">
    <!-- Generator: Sketch 49 (51002) - http://www.bohemiancoding.com/sketch -->
    <title>Logo/Provider/ExpressVPN</title>
    <desc>Created with Sketch.</desc>
    <defs></defs>
    <g id="Logo/Provider/ExpressVPN" stroke="none" stroke-width="1" fill="none" fill-rule="evenodd">
        <g id="171012_ExpressVPN" transform="translate(26.000000, 8.000000)" fill-rule="nonzero">
            <polyline id="Shape" fill="#C8252C" points="0.229576302 76.3496243 0.229576302 61.2804743 11.1945778 61.2804743 11.1945778 63.2882235 2.37228845 63.2882235 2.37228845 67.7560168 10.2653404 67.7560168 10.2653404 69.7527343 2.37228845 69.7527343 2.37228845 74.3418752 11.3038998 74.3418752 11.3038998 76.3496243 0.229576302 76.3496243"></polyline>
            <polygon id="Shape" fill="#C8252C" points="17.130765 72.1134943 14.0260188 76.3496243 11.686527 76.3496243 15.9391547 70.6021667 11.8505101 65.042246 14.2227985 65.042246 17.1744938 69.0577443 20.1261891 65.042246 22.465681 65.042246 18.3442398 70.5690719 22.6296641 76.3496243 20.224579 76.3496243 17.130765 72.1134943"></polygon>
            <path d="M28.5439869,66.7631739 C26.51745,66.8409773 24.9342904,68.5568665 25.0019525,70.6021667 C24.9575796,71.5877809 25.3079696,72.5499768 25.9742213,73.2720859 C26.640473,73.9941951 27.5665751,74.4155103 28.5439869,74.4411595 C29.5192338,74.4365641 30.4474219,74.0175159 31.1007539,73.2868585 C31.7540859,72.556201 32.072082,71.5815721 31.9766992,70.6021667 C32.0552439,69.6266096 31.7314009,68.6615784 31.081622,67.9348945 C30.4318431,67.2082106 29.5137151,66.7842768 28.5439869,66.7631739 M22.9576302,79.4274375 L22.9576302,65.0863724 L25.0128847,65.0863724 L25.0128847,66.7190475 C25.9075215,65.5384489 27.3008116,64.851819 28.7735632,64.8657406 C30.234931,64.8899059 31.6227699,65.5167918 32.6141196,66.6005173 C33.6054694,67.6842429 34.1138731,69.1302949 34.0210215,70.6021667 C34.1138005,72.0750859 33.6057073,73.5222359 32.6146874,74.6076842 C31.6236676,75.6931324 30.2359111,76.3224765 28.7735632,76.3496243 C27.3194274,76.3680664 25.9357874,75.7186624 25.0128847,74.5845701 L25.0128847,79.4274375 L22.9576302,79.4274375" id="Shape" fill="#C8252C"></path>
            <path d="M34.4583097,76.3496243 L34.4583097,65.0863724 L36.5463609,65.0863724 L36.5463609,67.1492795 C37.3883094,65.7838067 38.866386,64.9505588 40.4600902,64.9429617 L40.8973784,64.9429617 L40.8973784,67.1492795 L40.5256834,67.1492795 C38.1096661,67.1492795 36.5572931,68.9805232 36.5572931,71.826673 L36.5572931,76.3385927 L34.4583097,76.3385927" id="Shape" fill="#C8252C"></path>
            <path d="M46.0573791,65.0863724 C44.6221352,65.1166036 43.2612445,65.736427 42.2893364,66.8025433 C41.3174282,67.8686596 40.818648,69.2887671 40.9083106,70.7345457 C40.8549752,72.1984318 41.3927004,73.6214794 42.3983768,74.6778892 C43.4040531,75.734299 44.791557,76.3336027 46.2432266,76.3385927 C47.9316587,76.3835571 49.5458577,75.6383475 50.6161085,74.319812 L50.7800916,74.1433066 L49.4791592,72.9629266 L49.3151761,73.139432 C48.5456308,74.0248612 47.4321499,74.5282678 46.265091,74.5183806 C44.5820473,74.5280671 43.1649297,73.2506 42.9854295,71.5619149 L51.0533967,71.5619149 L51.0533967,71.3412831 C51.0533967,71.0985882 51.0533967,70.9220827 51.0533967,70.7786721 C51.0752611,67.2926901 49.0637354,65.0863724 46.0573791,65.0863724 Z M42.9635651,69.8630502 C43.1156754,68.2463594 44.4077779,66.9798968 46.0136503,66.8734897 C47.6387065,66.9133298 48.9517057,68.2237588 49.0090744,69.8630502 L42.9635651,69.8630502 Z" id="Shape" fill="#C8252C"></path>
            <path d="M51.6437358,74.7721071 L51.4688205,74.6286965 L52.562041,73.1284004 L52.7588207,73.2828427 C53.7318723,74.0722704 54.9327286,74.5213621 56.1806008,74.562507 C57.2738213,74.562507 58.06094,73.9888643 58.06094,73.1614952 C58.06094,72.3120629 57.0223806,71.9480205 55.6667872,71.5619149 C54.3111937,71.1758093 52.081024,70.5359771 52.081024,68.3737858 C52.0372951,66.3991314 53.5678038,65.0863724 55.7542448,65.0863724 C57.117798,65.1083015 58.4476526,65.5173842 59.5914487,66.2667524 L59.7882284,66.3991314 L58.8371266,67.9766486 L58.6294147,67.8442695 C57.7775255,67.2604438 56.7827829,66.9245764 55.7542448,66.8734897 C54.6610243,66.8734897 54.005092,67.3809428 54.005092,68.1421224 C54.005092,68.9363968 55.1857701,69.3004392 56.4320415,69.6865448 C57.8204315,70.1057452 59.9084826,70.7897037 59.9084826,72.8967371 L59.9084826,72.9739582 C59.9084826,74.9817073 58.3342451,76.2834348 56.0056855,76.2834348 C54.4158124,76.2469861 52.8808844,75.6893887 51.6328036,74.694886 L51.6437358,74.7721071 Z" id="Shape" fill="#C8252C"></path>
            <path d="M64.9372969,76.3606559 C63.3475709,76.3234105 61.8128857,75.7659012 60.5644149,74.7721071 L60.3894997,74.6286965 L61.4827201,73.1284004 L61.6794998,73.2828427 C62.652946,74.0715685 63.8535619,74.5205702 65.1012799,74.562507 C66.1945004,74.562507 66.9925514,73.9998959 66.9925514,73.1614952 C66.9925514,72.3120629 65.9539919,71.9480205 64.5983985,71.5619149 C63.2428051,71.1758093 61.0126353,70.5359771 61.0126353,68.3737858 C61.0126353,66.4763526 62.5540762,65.1525619 64.7623816,65.1525619 C66.1259348,65.1744911 67.4557894,65.5835738 68.5995855,66.3329419 L68.7963652,66.465321 L67.7796701,67.9766486 L67.5719582,67.8442695 C66.7092666,67.2590953 65.7026269,66.9268629 64.6639918,66.8845213 C63.5707713,66.8845213 62.914839,67.3919744 62.914839,68.153154 C62.914839,68.9474284 64.0955171,69.3114708 65.3417885,69.6975764 C66.7301785,70.1167768 68.8182296,70.8007353 68.8182296,72.9077687 L68.8182296,72.9849898 C68.8182296,74.9927389 67.2439921,76.2944664 64.9154325,76.2944664" id="Shape" fill="#C8252C"></path>
            <path d="M88.2228932,61.2804743 L82.6146721,61.2804743 L82.6146721,76.3496243 L84.7245877,76.3496243 L84.7245877,71.208904 L87.9495881,71.208904 C90.8575546,71.208904 93.8201821,69.6534501 93.8201821,66.1895312 C93.8201821,63.1889392 91.6228089,61.2804743 88.2228932,61.2804743 Z M91.6884022,66.2557208 C91.6884022,68.0538697 90.2453511,69.1901233 88.0151813,69.1901233 L84.7355199,69.1901233 L84.7355199,63.3102866 L88.102639,63.3102866 C90.3874698,63.3102866 91.6884022,64.4134455 91.6884022,66.222626 L91.6884022,66.2557208 Z" id="Shape" fill="#C8252C"></path>
            <polyline id="Shape" fill="#C8252C" points="105.233404 76.3496243 96.3017926 64.8878038 96.3017926 76.3496243 94.2137415 76.3496243 94.2137415 61.2804743 96.1050129 61.2804743 104.81798 72.4775367 104.81798 61.2804743 106.906031 61.2804743 106.906031 76.3496243 105.233404 76.3496243"></polyline>
            <polygon id="Shape" fill="#C8252C" points="76.044417 76.3496243 82.2539094 61.2915059 79.7504345 61.2915059 74.7762812 73.6358535 69.8349247 61.2915059 67.2986531 61.2915059 73.5081455 76.3496243 76.044417 76.3496243"></polygon>
            <ellipse id="Oval" fill="#C8252C" cx="53.5678038" cy="26.9942972" rx="26.6745799" ry="26.9942972"></ellipse>
            <polygon id="Shape" fill="#FFFFFF" points="64.3360256 12.5870425 57.7876349 33.2161131 57.7001773 33.2161131 52.7041596 18.2241843 36.1746659 18.2241843 36.1746659 22.0521455 47.6862776 22.0521455 48.7248371 24.986548 39.0389036 24.986548 39.0389036 28.8145093 50.0694983 28.8145093 50.9222102 31.2414587 35.9778862 31.2414587 35.9778862 35.0583884 52.2559392 35.0583884 54.3877192 41.1147305 60.6518726 41.1147305 70.7313655 12.5870425"></polygon>
        </g>
    </g>
</svg>