<?xml version="1.0" encoding="UTF-8"?>
<svg width="160px" height="96px" viewBox="0 0 160 96" version="1.1" xmlns="http://www.w3.org/2000/svg" xmlns:xlink="http://www.w3.org/1999/xlink">
    <!-- Generator: Sketch 49 (51002) - http://www.bohemiancoding.com/sketch -->
    <title>Logo/Provider/StrongVPN</title>
    <desc>Created with Sketch.</desc>
    <defs></defs>
    <g id="Logo/Provider/StrongVPN" stroke="none" stroke-width="1" fill="none" fill-rule="evenodd">
        <g id="171218_strongvpn" transform="translate(43.000000, 7.000000)">
            <g id="Group" transform="translate(13.166667, 0.000000)" fill-rule="nonzero">
                <g id="main_bg" transform="translate(0.106061, 0.000000)">
                    <path d="M32.2748485,4.32469697 C29.2042827,3.33122133 26.2006789,2.1416021 23.2825758,0.763181818 L23.2272727,0.763181818 L23.2272727,48.1468182 C23.2936364,48.2131818 23.2936364,48.3569697 23.36,48.4233333 C25.0301515,44.1760606 34.9957576,48.1468182 42.4506061,34.1440909 C49.6289394,20.7607576 44.474697,5.99484848 44.474697,5.99484848 C44.474697,5.99484848 36.9424242,5.85106061 32.2748485,4.32469697 Z" id="Shape" fill="#845416"></path>
                    <path d="M23.2272727,0.763181818 C20.3197875,2.11373104 17.339949,3.30271244 14.3013636,4.32469697 C9.63378788,5.85106061 2.13469697,5.99484848 2.13469697,5.99484848 C2.13469697,5.99484848 -2.95318182,20.7607576 4.22515152,34.2104545 C11.5030303,47.870303 21.1921212,44.4525758 23.2272727,48.2131818 L23.2272727,0.763181818 Z" id="Shape" fill="#E2B171"></path>
                </g>
                <g id="line" transform="translate(5.636364, 6.636364)">
                    <polygon id="Shape" fill="#23240F" points="25.6274242 0.121666667 17.6859091 7.99681818 17.6859091 28.9013636 38.9333333 9.73333333 37.96 2.14575758 36.5 0.188030303"></polygon>
                    <polygon id="Shape" fill="#475858" points="17.6859091 7.99681818 0.331818182 25.1407576 4.78924242 33.8454545 9.45681818 36.3562121 17.6859091 28.9013636"></polygon>
                </g>
                <g id="holeborder" transform="translate(16.696970, 12.166667)">
                    <path d="M12.6865152,6.71378788 C12.6865152,3.40292448 10.0025301,0.718939394 6.69166667,0.718939394 L6.63636364,0.718939394 L6.63636364,21.7340909 L6.70272727,21.7340909 C9.91030303,21.7340909 12.5537879,20.2630303 12.5537879,17.0665152 C12.2533351,15.0224431 11.6180545,13.0418624 10.6734848,11.2043939 C11.9833304,10.0846707 12.7221041,8.43663694 12.6865152,6.71378788 Z" id="Shape" fill="#D49306"></path>
                    <path d="M6.63636364,0.718939394 C3.35144594,0.755306019 0.70767749,3.42866889 0.707878788,6.71378788 C0.688716337,8.41665835 1.43099394,10.0391231 2.7319697,11.1380303 C1.79523972,12.9787359 1.16037935,14.9580064 0.851666667,17.0001515 C0.851666667,20.1966667 3.42878788,21.6677273 6.63636364,21.6677273 L6.63636364,0.718939394 Z" id="Shape" fill="#FFFFC4"></path>
                </g>
                <path d="M23.3886364,19.7210606 C23.3886364,19.7210606 26.7068182,26.7556061 26.7068182,28.9124242 C26.7068182,31.0692424 25.2468182,31.4231818 23.3886364,31.4231818 C21.5304545,31.4231818 20.0704545,31.080303 20.0704545,28.9124242 C20.0704545,26.7445455 23.3886364,19.7210606 23.3886364,19.7210606 Z" id="Shape" fill="#000000"></path>
                <circle id="Oval" fill="#000000" cx="23.3886364" cy="18.9468182" r="3.90439394"></circle>
                <g id="Border" transform="translate(0.000000, 0.000000)">
                    <path d="M30.5006061,8.2180303 C33.730562,9.06897444 37.0494605,9.53673866 40.3887879,9.61166667 C40.3887879,9.61166667 44.6360606,21.6013636 38.8181818,32.4739394 C32.7569697,43.8221212 24.7490909,40.6256061 23.3333333,44.109697 L23.3333333,49.4740909 C25.0698485,45.0498485 35.1792424,49.1201515 42.7668182,34.6307576 C50.0889394,20.6943939 44.8572727,5.43075758 44.8572727,5.43075758 C44.8572727,5.43075758 37.1922727,5.22060606 32.4583333,3.69424242 C29.3431959,2.65271982 26.2956756,1.41893581 23.3333333,1.77635684e-15 L23.3333333,5.36439394 C25.6391741,6.51267605 28.0365292,7.46717853 30.5006061,8.2180303 Z" id="Shape" fill="#CD9646"></path>
                    <path d="M16.0001515,8.2180303 C18.4767398,7.43156361 20.897184,6.47816726 23.2448485,5.36439394 L23.3333333,5.36439394 L23.3333333,0 C20.3668232,1.41806515 17.3156777,2.65182132 14.1972727,3.69424242 C9.3969697,5.22060606 1.79833333,5.43075758 1.79833333,5.43075758 C1.79833333,5.43075758 -3.35590909,20.6943939 3.88878788,34.6307576 C11.4874242,49.1201515 21.5857576,45.0830303 23.3333333,49.4740909 L23.3333333,44.109697 C21.939697,40.6919697 13.8543939,43.8221212 7.84848485,32.4739394 C1.99742424,21.6013636 6.1119697,9.61166667 6.1119697,9.61166667 C9.45129705,9.53673866 12.7701956,9.06897444 16.0001515,8.2180303 Z" id="Shape" fill="#FFFF93"></path>
                </g>
                <g transform="translate(28.863636, 41.924242)">
                    <ellipse id="Oval" fill="#AB7A33" cx="1.6369697" cy="1.34484848" rx="1.18348485" ry="1.24984848"></ellipse>
                    <path d="M0.442424242,1.34484848 C0.459213407,1.56090863 0.507660187,1.77332913 0.586212121,1.97530303 L0.862727273,1.97530303 C1.61508023,1.95140686 2.21250061,1.33439893 2.21212121,0.581666667 C2.22247478,0.459853304 2.1995365,0.337515792 2.14575758,0.227727273 C1.98447252,0.115941293 1.78717915,0.0685908841 1.59272727,0.095 C0.939057696,0.141766858 0.434902154,0.689551244 0.442424242,1.34484848 Z" id="Shape" fill="#E9B66D"></path>
                </g>
                <g transform="translate(36.606061, 35.393939)">
                    <ellipse id="Oval" fill="#AB7A33" cx="1.69227273" cy="1.88030303" rx="1.18348485" ry="1.24984848"></ellipse>
                    <path d="M0.508787879,1.88030303 C0.498223339,2.12963227 0.572285571,2.37520704 0.718939394,2.57712121 L0.929090909,2.57712121 C1.69877502,2.57712121 2.32272727,1.95316896 2.32272727,1.18348485 C2.33407097,1.03902627 2.30737699,0.894116092 2.24530303,0.763181818 C2.07283528,0.679164801 1.88408606,0.633864988 1.69227273,0.630454545 C1.02288405,0.654475546 0.4962882,1.21060014 0.508787879,1.88030303 Z" id="Shape" fill="#E9B66D"></path>
                </g>
                <g transform="translate(41.030303, 26.545455)">
                    <ellipse id="Oval" fill="#AB7A33" cx="1.80287879" cy="1.95772727" rx="1.18348485" ry="1.24984848"></ellipse>
                    <path d="M0.608333333,1.95772727 C0.626184005,2.17003905 0.674613497,2.3786584 0.752121212,2.57712121 L1.02863636,2.57712121 C1.39915608,2.58009742 1.75536481,2.43422421 2.01737026,2.17221875 C2.27937572,1.91021329 2.42524893,1.55400457 2.42227273,1.18348485 C2.43288092,1.06522298 2.40987699,0.946369326 2.35590909,0.840606061 C2.19819953,0.720674464 1.99903168,0.668890822 1.80287879,0.696818182 C1.12998975,0.726588637 0.601714497,1.28421252 0.608333333,1.95772727 Z" id="Shape" fill="#E9B66D"></path>
                </g>
                <g transform="translate(42.136364, 15.484848)">
                    <ellipse id="Oval" fill="#AB7A33" cx="2.09045455" cy="2.06833333" rx="1.18348485" ry="1.24984848"></ellipse>
                    <path d="M0.895909091,2.06833333 C0.891026061,2.31691427 0.964554662,2.56071963 1.10606061,2.76515152 L1.31621212,2.76515152 C1.68673184,2.76812772 2.04294056,2.62225451 2.30494602,2.36024905 C2.56695148,2.09824359 2.71282469,1.74203487 2.70984848,1.37151515 C2.72044821,1.23177042 2.69770271,1.0915065 2.64348485,0.962272727 C2.26631283,0.756892507 1.8074782,0.77195615 1.44458919,1.00163274 C1.08170018,1.23130933 0.871712408,1.639551 0.895909091,2.06833333 Z" id="Shape" fill="#E9B66D"></path>
                </g>
                <g transform="translate(41.030303, 5.530303)">
                    <ellipse id="Oval" fill="#AB7A33" cx="1.65909091" cy="2.06833333" rx="1.18348485" ry="1.24984848"></ellipse>
                    <path d="M0.475606061,2.06833333 C0.465041521,2.31766257 0.539103753,2.56323734 0.685757576,2.76515152 L0.895909091,2.76515152 C1.66308691,2.75913416 2.2835281,2.13869297 2.28954545,1.37151515 C2.30251478,1.22697666 2.27574257,1.0816418 2.21212121,0.951212121 C2.04066173,0.863021507 1.85179224,0.813915439 1.65909091,0.807424242 C0.9879595,0.837295814 0.462945254,1.39665679 0.475606061,2.06833333 Z" id="Shape" fill="#E9B66D"></path>
                </g>
                <g transform="translate(29.969697, 4.424242)">
                    <ellipse id="Oval" fill="#AB7A33" cx="1.71439394" cy="1.42681818" rx="1.18348485" ry="1.24984848"></ellipse>
                    <path d="M0.530909091,1.42681818 C0.525646409,1.67383239 0.595033615,1.91668761 0.73,2.12363636 L0.940151515,2.12363636 C1.70983563,2.12363636 2.33378788,1.49968411 2.33378788,0.73 C2.34368852,0.586685179 2.32099969,0.442989251 2.26742424,0.30969697 C2.09405937,0.228208433 1.9058591,0.183040369 1.71439394,0.176969697 C1.04500526,0.200990698 0.518409413,0.757115288 0.530909091,1.42681818 Z" id="Shape" fill="#E9B66D"></path>
                </g>
                <g transform="translate(12.272727, 4.424242)">
                    <ellipse id="Oval" fill="#DCCE73" cx="1.84712121" cy="1.42681818" rx="1.18348485" ry="1.24984848"></ellipse>
                    <path d="M0.663636364,1.42681818 C0.656594891,1.65525782 0.731090918,1.8787459 0.873787879,2.05727273 C0.940151515,2.05727273 1.08393939,2.12363636 1.15030303,2.12363636 C1.91748085,2.11761901 2.53792204,1.49717782 2.54393939,0.73 C2.55454759,0.611738135 2.53154366,0.492884477 2.47757576,0.387121212 C2.29393448,0.254101294 2.07384618,0.180738528 1.84712121,0.176969697 C1.17773254,0.200990698 0.651136685,0.757115288 0.663636364,1.42681818 Z" id="Shape" fill="#FFFFBE"></path>
                </g>
                <g transform="translate(0.106061, 15.484848)">
                    <ellipse id="Oval" fill="#DCCE73" cx="2.03515152" cy="2.06833333" rx="1.18348485" ry="1.24984848"></ellipse>
                    <path d="M0.851666667,2.06833333 C0.843532328,2.31571014 0.913161426,2.55941199 1.05075758,2.76515152 L1.26090909,2.76515152 C1.63142881,2.76812772 1.98763753,2.62225451 2.24964299,2.36024905 C2.51164845,2.09824359 2.65752166,1.74203487 2.65454545,1.37151515 C2.66514518,1.23177042 2.64239968,1.0915065 2.58818182,0.962272727 C2.21250668,0.754795975 1.75349282,0.769156664 1.39152192,0.99971138 C1.02955101,1.2302661 0.822473763,1.64016726 0.851666667,2.06833333 Z" id="Shape" fill="#FFFFBE"></path>
                </g>
                <g transform="translate(2.212121, 26.545455)">
                    <ellipse id="Oval" fill="#DCCE73" cx="1.24530303" cy="1.88030303" rx="1.18348485" ry="1.24984848"></ellipse>
                    <path d="M0.106060606,1.88030303 C0.0954960664,2.12963227 0.169558299,2.37520704 0.316212121,2.57712121 L0.526363636,2.57712121 C1.29604775,2.57712121 1.92,1.95316896 1.92,1.18348485 C1.92990064,1.04017003 1.90721181,0.8964741 1.85363636,0.763181818 C1.67676881,0.680518883 1.48471595,0.635329976 1.28954545,0.630454545 C0.622765875,0.660218269 0.0994373224,1.21289235 0.106060606,1.88030303 Z" id="Shape" fill="#FFFFBE"></path>
                </g>
                <g transform="translate(6.636364, 35.393939)">
                    <ellipse id="Oval" fill="#DCCE73" cx="1.21212121" cy="1.81393939" rx="1.18348485" ry="1.24984848"></ellipse>
                    <path d="M0.0286363636,1.81393939 C0.0393500961,2.03087949 0.0880161298,2.24426133 0.172424242,2.44439394 L0.448939394,2.44439394 C1.19525676,2.43934986 1.80733291,1.85156245 1.84257576,1.10606061 C1.85292933,0.984247243 1.82999105,0.861909732 1.77621212,0.752121212 C1.61152238,0.638608438 1.41014756,0.591226128 1.21212121,0.619393939 C0.564060181,0.642536527 0.045749606,1.16569113 0.0286363636,1.81393939 Z" id="Shape" fill="#FFFFBE"></path>
                </g>
                <g transform="translate(13.378788, 41.924242)">
                    <ellipse id="Oval" fill="#DCCE73" cx="1.92454545" cy="1.27848485" rx="1.18348485" ry="1.24984848"></ellipse>
                    <path d="M0.741060606,1.27848485 C0.730496066,1.52781409 0.804558299,1.77338886 0.951212121,1.97530303 L1.16136364,1.97530303 C1.92854145,1.96928567 2.54898264,1.34884448 2.555,0.581666667 C2.56569073,0.438318289 2.5429738,0.294444409 2.48863636,0.161363636 C2.31270914,0.0745713754 2.12055323,0.0255904587 1.92454545,0.0175757576 C1.25602067,0.0530874742 0.734193598,0.609052765 0.741060606,1.27848485 Z" id="Shape" fill="#FFFFBE"></path>
                </g>
                <g transform="translate(2.318182, 5.530303)">
                    <ellipse id="Oval" fill="#DCCE73" cx="1.62590909" cy="2.06833333" rx="1.18348485" ry="1.24984848"></ellipse>
                    <path d="M0.442424242,2.06833333 C0.450662647,2.26077721 0.499672848,2.44927798 0.586212121,2.62136364 C0.718939394,2.62136364 0.796363636,2.68772727 0.929090909,2.68772727 C1.29961063,2.69070348 1.65581935,2.54483027 1.91782481,2.28282481 C2.17983027,2.02081935 2.32570348,1.66461063 2.32272727,1.29409091 L2.32272727,1.01757576 C2.1176504,0.877412889 1.8742849,0.804016943 1.62590909,0.807424242 C0.957384306,0.842935959 0.435557235,1.39890125 0.442424242,2.06833333 Z" id="Shape" fill="#FFFFBE"></path>
                </g>
            </g>
            <g id="Group" transform="translate(0.000000, 55.303030)">
                <g id="Shape">
                    <path d="M40.824697,3.31818182 C40.0393939,3.31818182 39.4974242,3.80484848 39.4974242,6.63636364 C39.4974242,9.46787879 40.0393939,9.95454545 40.824697,9.95454545 C41.61,9.95454545 42.1519697,9.53424242 42.1519697,6.63636364 C42.1519697,3.73848485 41.61,3.31818182 40.824697,3.31818182 Z"></path>
                    <path d="M28.2487879,3.31818182 L27.8174242,3.31818182 L27.8174242,5.67409091 L28.2487879,5.67409091 C29.1557576,5.67409091 29.874697,5.30909091 29.8193939,4.40212121 C29.7640909,3.49515152 29.2110606,3.31818182 28.2487879,3.31818182 Z"></path>
                    <path d="M5.86212121,10.4080303 C5.49106641,10.4388232 5.12941777,10.2808617 4.89984848,9.98772727 C4.72285856,9.69507025 4.63806852,9.3559101 4.65651515,9.01439394 L0,9.01439394 C0,12.2219697 2.72090909,13.195303 5.68515152,13.195303 C9.19136364,13.195303 11.6136364,11.9233333 11.6136364,8.89272727 C11.6973053,7.41750619 10.7954381,6.06470529 9.40151515,5.57454545 C8.11820537,5.10881384 6.80205475,4.73910861 5.46393939,4.46848485 C4.97727273,4.29151515 4.67863636,4.10348485 4.67863636,3.68318182 C4.67863636,3.26287879 5.04363636,2.95318182 5.78469697,2.95318182 C6.3930303,2.95318182 6.89075758,3.19651515 6.89075758,3.98181818 L11.2486364,3.98181818 C11.2486364,1.08393939 8.9480303,0.110606061 5.86212121,0.110606061 C2.23424242,0.110606061 0.176969697,1.57060606 0.176969697,4.16984848 C0.0739139907,5.75703562 1.1613906,7.17548338 2.72090909,7.4880303 L6.17181818,8.50560606 C6.64742424,8.62727273 7.01242424,8.87060606 7.01242424,9.35727273 C7.01242424,9.84393939 6.63636364,10.4080303 5.86212121,10.4080303 Z" fill="#626A80" fill-rule="nonzero"></path>
                    <path d="M40.824697,0 C36.5331818,0 34.4095455,2.66560606 34.4095455,6.63636364 C34.4095455,10.6071212 36.5331818,13.2727273 40.824697,13.2727273 C45.1162121,13.2727273 47.2398485,10.6071212 47.2398485,6.63636364 C47.2398485,2.66560606 45.1162121,0 40.824697,0 Z M40.824697,9.95454545 C40.0393939,9.95454545 39.4974242,9.53424242 39.4974242,6.63636364 C39.4974242,3.73848485 40.0393939,3.31818182 40.824697,3.31818182 C41.61,3.31818182 42.1519697,3.80484848 42.1519697,6.63636364 C42.1519697,9.46787879 41.61,9.95454545 40.824697,9.95454545 Z" fill="#626A80" fill-rule="nonzero"></path>
                    <polygon fill="#626A80" fill-rule="nonzero" points="14.5115152 12.8856061 19.4113636 12.8856061 19.4113636 3.99287879 22.4419697 3.99287879 22.4419697 0.30969697 11.4919697 0.30969697 11.4919697 3.99287879 14.5115152 3.99287879"></polygon>
                    <path d="M66.6512121,5.75151515 L66.6512121,8.22909091 L68.3434848,8.22909091 L68.3434848,9.74439394 C67.9223973,9.91555805 67.470633,9.99838149 67.0162121,9.98772727 C66.4473596,10.0456224 65.898884,9.75832568 65.6225758,9.25772727 C65.3464018,8.48202009 65.2444419,7.65501163 65.3239394,6.83545455 C65.267181,5.8998534 65.3681336,4.96136781 65.6225758,4.05924242 C65.8865259,3.49948756 66.4526907,3.14509434 67.0715152,3.15227273 C67.3548245,3.12947101 67.6360384,3.21660772 67.8568182,3.39560606 C68.0868984,3.59183749 68.2201439,3.87851717 68.2218182,4.18090909 L72.8230303,4.18090909 C72.7566667,1.21666667 70.7878788,0 66.9498485,0 C62.359697,0 60.1143939,2.78727273 60.1143939,6.63636364 C60.1143939,10.4854545 62.3265152,13.2727273 66.7507576,13.2727273 C68.8657832,13.2410449 70.9672346,12.9286167 73,12.3436364 L73,5.70727273 L66.6512121,5.75151515 Z" fill="#626A80" fill-rule="nonzero"></path>
                    <polygon fill="#626A80" fill-rule="nonzero" points="56.0109091 7.93045455 53.345303 0.30969697 47.4721212 0.30969697 47.4721212 12.8856061 51.465 12.8856061 51.465 5.26484848 51.5313636 5.26484848 54.1306061 12.830303 59.9927273 12.830303 59.9927273 0.30969697 56.0109091 0.30969697"></polygon>
                    <path d="M32.0757576,6.63636364 C33.5616283,6.43529891 34.624969,5.09880648 34.4869697,3.60575758 C34.4869697,1.24984848 32.9163636,0.287575758 30.2618182,0.287575758 L22.9839394,0.287575758 L22.9839394,12.8856061 L27.7621212,12.8856061 L27.7621212,8.46136364 L28.3040909,8.46136364 C29.0893939,8.46136364 29.4101515,8.70469697 29.509697,9.3130303 C29.6438047,10.5109144 29.84692,11.7000624 30.1180303,12.8745455 L34.8962121,12.8745455 C34.5516264,11.3188694 34.2894932,9.74607023 34.1109091,8.16272727 C33.9573249,7.18705343 33.055408,6.51061574 32.0757576,6.63636364 Z M28.2045455,5.6630303 L27.7731818,5.6630303 L27.7731818,3.31818182 L28.2045455,3.31818182 C29.1668182,3.31818182 29.7751515,3.49515152 29.7751515,4.42424242 C29.7751515,5.35333333 29.1557576,5.62984848 28.2487879,5.62984848 L28.2045455,5.6630303 Z" fill="#626A80" fill-rule="nonzero"></path>
                </g>
                <g transform="translate(19.909091, 14.378788)" id="Shape">
                    <path d="M16.5909091,2.49969697 L15.1972727,2.49969697 L15.1972727,6.19393939 L16.3033333,6.19393939 C17.1439394,6.19393939 18.7145455,6.19393939 18.7145455,4.25833333 C18.7034848,2.49969697 17.3209091,2.49969697 16.5909091,2.49969697 Z"></path>
                    <polygon fill="#626A80" fill-rule="nonzero" points="6.42621212 10.4854545 3.16333333 0.387121212 0.265454545 0.387121212 4.85560606 13.1510606 7.76454545 13.1510606 12.354697 0.387121212 9.70015152 0.387121212"></polygon>
                    <path d="M16.4139394,0.387121212 L12.5980303,0.387121212 L12.5980303,13.2063636 L15.3189394,13.2063636 L15.3189394,8.18484848 L17.1328788,8.18484848 C18.118846,8.25467097 19.1044218,8.04375008 19.9754545,7.57651515 C21.0202063,6.77245076 21.6065491,5.50892331 21.5460606,4.1919697 C21.5684645,3.31857596 21.2913484,2.46380934 20.7607576,1.76969697 C19.6768182,0.564090909 18.1615152,0.387121212 16.4139394,0.387121212 Z M16.2922727,6.19393939 L15.1862121,6.19393939 L15.1862121,2.49969697 L16.5909091,2.49969697 C17.3762121,2.49969697 18.8030303,2.49969697 18.8030303,4.25833333 C18.7034848,6.19393939 17.1328788,6.19393939 16.2922727,6.19393939 Z" fill="#626A80" fill-rule="nonzero"></path>
                    <polygon fill="#626A80" fill-rule="nonzero" points="30.4387879 10.4854545 30.3834848 10.4854545 25.7269697 0.387121212 21.8557576 0.387121212 21.8557576 13.2063636 24.3886364 13.2063636 24.3886364 2.555 29.2331818 13.2063636 32.9163636 13.2063636 32.9163636 0.387121212 30.4387879 0.387121212"></polygon>
                </g>
            </g>
        </g>
    </g>
</svg>